<svg xmlns="http://www.w3.org/2000/svg" version="1.1" xmlns:xlink="http://www.w3.org/1999/xlink" xmlns:svgjs="http://svgjs.dev/svgjs" viewBox="0 0 1422 800"><defs><linearGradient x1="50%" y1="0%" x2="50%" y2="100%" id="ccchaos-grad"><stop stop-color="hsl(206, 75%, 49%)" stop-opacity="1" offset="0%"></stop><stop stop-color="hsl(331, 90%, 56%)" stop-opacity="1" offset="100%"></stop></linearGradient></defs><g stroke-width="2" stroke="url(#ccchaos-grad)" fill="none" stroke-linecap="round"><path d="M419.59 101.33Q428.16 102.67 436.73 104.36 445.3 106.34 453.88 108.56 462.45 110.95 471.02 113.42 479.6 115.92 488.17 118.36 496.74 120.66 505.32 122.76 522.46 125.91 539.61 127.96 556.75 127.91 573.9 126.58 582.47 125.21 591.04 123.49 599.62 121.49 608.19 119.26 616.76 116.86 625.34 114.38 633.91 111.89 642.48 109.46 651.06 107.17 659.63 105.09 676.77 101.99 693.92 99.99 711.07 100.11 728.21 101.5 736.78 102.9 745.36 104.63 753.93 106.65 762.5 108.9 771.08 111.3 779.65 113.79 788.22 116.28 796.8 118.7 805.37 120.98 813.94 123.04 831.09 126.1 848.23 128.03 865.38 127.86 882.52 126.4 891.1 124.98 899.67 123.22 908.24 121.18 916.82 118.92 925.39 116.51 933.96 114.02 942.54 111.53 951.11 109.11 966.39 110.19 978.7 122.25 984.89 130.97 991.46 139.69 998.21 148.41 1004.92 157.13 1011.38 165.86 1017.38 174.58 1022.73 183.3 1027.26 192.02 1030.83 200.74 1033.31 209.47 1034.17 226.91 1031.46 244.35 1028.12 253.07 1023.78 261.8 1018.6 270.52 1012.72 279.24 1006.34 287.96 999.67 296.68 992.91 305.4 986.28 314.13 979.99 322.85 974.25 331.57 969.23 340.29 965.09 349.01 961.97 357.73 959.97 366.46 959.14 375.18 959.53 383.9 961.1 392.62 963.82 401.34 967.6 410.06 972.31 418.79 977.82 427.51 983.93 436.23 990.46 444.95 997.19 453.67 1003.92 462.4 1010.43 471.12 1016.51 479.84 1021.97 488.56 1026.64 497.28 1030.36 506 1033.01 514.73 1034.52 523.45 1034.83 532.17 1033.94 540.89 1031.87 549.61 1028.69 558.33 1024.49 567.06 1019.43 575.78 1013.64 584.5 1007.33 593.22 1000.69 601.94 993.93 610.66 987.26 619.39 980.91 628.11 975.07 636.83 969.93 645.55 965.65 654.27 962.37 662.99 953.87 668.11 945.37 673.78 936.88 679.82 928.38 686.05 919.88 692.28 911.38 698.31 902.88 703.97 894.38 709.08 885.89 713.48 877.39 717.04 860.39 720.68 843.39 721.12 834.9 719.45 826.4 716.75 817.9 713.11 809.4 708.64 800.9 703.48 792.4 697.78 783.91 691.72 775.41 685.48 766.91 679.26 758.41 673.25 749.91 667.63 741.41 662.56 732.92 658.22 724.42 654.73 707.42 651.24 690.42 650.95 681.93 652.7 673.43 655.47 664.93 659.18 656.43 663.7 647.93 668.91 639.43 674.64 630.94 680.72 622.44 686.96 613.94 693.18 605.44 699.17 596.94 704.76 588.44 709.77 579.95 714.05 571.45 717.48 554.45 720.82 537.46 720.94 528.96 719.12 520.46 716.28 511.96 712.51 503.46 707.93 494.96 702.67 486.47 696.91 477.97 690.81 469.47 684.57 460.97 678.37 452.47 672.4 443.97 666.85 435.48 661.88 423.04 651.66 419.9 637.02 422.02 619.74 424.42 602.46 426.91 585.18 429.22 567.9 430.86 550.62 431.95 533.33 431.94 516.05 431.27 498.77 429.62 481.49 427.52 464.21 425.03 446.93 422.54 429.65 420.42 412.37 418.75 395.09 418.06 377.81 418.03 360.53 419.09 343.25 420.71 325.97 423.01 308.69 425.5 291.41 427.91 274.13 430.04 256.85 431.38 239.57 432.1 222.29 431.72 205.01 430.69 187.73 428.77 170.45 426.49 153.17 423.97 135.89 421.55 118.61 420.5 109.97 419.59 101.33" stroke-dasharray="7 6" transform="rotate(0, 711, 400)" opacity="0.05"></path><path d="M431.38 113.71Q448.01 117.46 464.64 122.05 481.28 126.98 497.91 131.68 514.55 135.63 531.18 138.38 547.82 139.63 564.45 139.23 581.09 137.23 597.72 133.85 614.36 129.48 630.99 124.6 647.63 119.77 664.26 115.52 680.89 112.34 697.53 110.59 714.16 110.45 730.8 111.95 747.43 114.92 764.07 119.02 780.7 123.8 797.34 128.7 813.97 133.19 830.61 136.76 847.24 139.01 863.88 139.67 880.51 138.69 897.14 136.17 913.78 132.39 930.41 127.77 947.05 122.85 963.68 118.16 975.05 135.05 987.71 151.94 1000.16 168.83 1010.95 185.71 1018.83 202.6 1022.86 219.49 1022.58 236.38 1018.02 253.27 1009.71 270.15 998.63 287.04 986.07 303.93 973.5 320.82 962.39 337.7 954.05 354.59 949.44 371.48 949.11 388.37 953.1 405.25 960.93 422.14 971.7 439.03 984.14 455.92 996.8 472.81 1008.19 489.69 1016.99 506.58 1022.16 523.47 1023.1 540.36 1019.69 557.24 1012.35 574.13 1001.92 591.02 989.63 607.91 976.91 624.79 965.26 641.68 956.03 658.57 939.58 669.83 923.14 681.67 906.69 692.76 890.25 701.85 873.8 707.92 857.36 710.29 840.91 708.68 824.47 703.29 808.02 694.71 791.58 683.91 775.13 672.11 758.69 660.64 742.24 650.78 725.8 643.64 709.35 640.03 692.91 640.36 676.46 644.58 660.02 652.22 643.58 662.43 627.13 674.05 610.69 685.78 594.24 696.29 577.8 704.41 561.35 709.21 544.91 710.17 528.46 707.17 512.02 700.55 495.57 691.06 479.13 679.76 462.68 667.92 446.24 656.88 429.79 647.87 431.7 631.18 434.11 614.49 436.75 597.8 439.29 581.1 441.45 564.41 442.97 547.72 443.68 531.03 443.48 514.33 442.41 497.64 440.59 480.95 438.23 464.26 435.61 447.56 433.04 430.87 430.81 414.18 429.18 397.49 428.36 380.79 428.43 364.1 429.38 347.41 431.11 330.72 433.41 314.02 436.01 297.33 438.61 280.64 440.9 263.95 442.62 247.25 443.57 230.56 443.63 213.87 442.79 197.18 441.16 180.48 438.93 163.79 436.35 147.1 433.73 130.41 431.38 113.71" stroke-dasharray="9 6" transform="rotate(4.04, 711, 400)" opacity="0.09"></path><path d="M443.59 126.74Q459.73 131.01 475.87 135.8 492.01 140.61 508.14 144.94 524.28 148.34 540.42 150.47 556.55 151.09 572.69 150.14 588.83 147.73 604.97 144.1 621.1 139.63 637.24 134.78 653.38 130.06 669.51 125.95 685.65 122.89 701.79 121.18 717.92 121.02 734.06 122.41 750.2 125.2 766.34 129.12 782.47 133.75 798.61 138.61 814.75 143.21 830.88 147.05 847.02 149.75 863.16 151.02 879.3 150.73 895.43 148.91 911.57 145.75 927.71 141.58 943.84 136.83 959.98 132 971.64 148.33 983.66 164.67 994.74 181 1003.7 197.34 1009.56 213.68 1011.68 230.01 1009.85 246.35 1004.26 262.68 995.5 279.02 984.54 295.36 972.55 311.69 960.81 328.03 950.61 344.36 943.05 360.7 938.92 377.04 938.7 393.37 942.38 409.71 949.59 426.04 959.54 442.38 971.16 458.72 983.19 475.05 994.34 491.39 1003.4 507.73 1009.39 524.06 1011.67 540.4 1010 556.73 1004.55 573.07 995.9 589.41 985.01 605.74 973.03 622.08 961.26 638.41 950.98 654.75 935.06 665.93 919.14 676.91 903.22 686.54 887.3 693.84 871.38 698.04 855.46 698.71 839.54 695.78 823.62 689.55 807.7 680.66 791.78 670.05 775.86 658.81 759.94 648.11 744.03 639.05 728.11 632.59 712.19 629.38 696.27 629.76 680.35 633.7 664.43 640.78 648.51 650.27 632.59 661.18 616.67 672.39 600.75 682.72 584.83 691.11 568.91 696.69 552.99 698.88 537.07 697.44 521.15 692.54 505.23 684.67 489.31 674.66 473.39 663.54 457.47 652.47 441.56 642.6 443.88 626.47 446.55 610.35 449.26 594.23 451.73 578.11 453.69 561.99 454.92 545.87 455.3 529.75 454.79 513.63 453.43 497.51 451.38 481.39 448.85 465.27 446.13 449.15 443.49 433.03 441.24 416.91 439.61 400.79 438.77 384.67 438.83 368.55 439.76 352.42 441.47 336.3 443.78 320.18 446.44 304.06 449.16 287.94 451.64 271.82 453.62 255.7 454.89 239.58 455.3 223.46 454.82 207.34 453.5 191.22 451.47 175.1 448.96 158.98 446.23 142.86 443.59 126.74" stroke-dasharray="8 10" transform="rotate(8.08, 711, 400)" opacity="0.13"></path><path d="M456.21 140.33Q471.86 144.92 487.5 149.71 503.14 154.24 518.78 158.08 534.42 160.86 550.07 162.32 565.71 162.32 581.35 160.86 596.99 158.07 612.64 154.23 628.28 149.7 643.92 144.91 659.56 140.32 675.21 136.37 690.85 133.43 706.49 131.78 722.13 131.58 737.77 132.86 753.42 135.48 769.06 139.2 784.7 143.66 800.34 148.44 815.99 153.09 831.63 157.15 847.27 160.24 862.91 162.07 878.56 162.47 894.2 161.38 909.84 158.93 925.48 155.34 941.12 150.95 956.77 146.18 968.12 161.96 979.07 177.75 988.53 193.53 995.55 209.31 999.44 225.09 999.81 240.87 996.63 256.65 990.22 272.43 981.2 288.22 970.48 304 959.12 319.78 948.23 335.56 938.92 351.34 932.08 367.12 928.42 382.9 928.28 398.69 931.69 414.47 938.29 430.25 947.45 446.03 958.25 461.81 969.62 477.59 980.43 493.37 989.61 509.16 996.25 524.94 999.69 540.72 999.59 556.5 995.96 572.28 989.16 588.06 979.86 603.84 968.99 619.63 957.63 635.41 946.89 651.19 931.48 661.78 916.07 671.54 900.66 679.53 885.25 684.98 869.84 687.39 854.43 686.52 839.02 682.45 823.61 675.57 808.2 666.54 792.79 656.22 777.38 645.59 761.97 635.66 746.56 627.39 731.15 621.56 715.74 618.73 700.33 619.17 684.92 622.83 669.51 629.37 654.1 638.16 638.69 648.37 623.29 659.01 607.88 669.09 592.47 677.63 577.06 683.82 561.65 687.07 546.24 687.07 530.83 683.82 515.42 677.63 500.01 669.1 484.6 659.02 469.19 648.38 453.78 638.17 456.42 622.61 459.23 607.05 461.91 591.5 464.2 575.94 465.88 560.38 466.77 544.82 466.8 529.27 465.95 513.71 464.31 498.15 462.05 482.59 459.38 467.04 456.58 451.48 453.92 435.92 451.66 420.36 450.03 404.8 449.19 389.25 449.22 373.69 450.13 358.13 451.81 342.57 454.11 327.02 456.79 311.46 459.59 295.9 462.24 280.34 464.46 264.79 466.04 249.23 466.83 233.67 466.73 218.11 465.77 202.56 464.04 187 461.71 171.44 459.01 155.88 456.21 140.33" stroke-dasharray="1 2" transform="rotate(12.12, 711, 400)" opacity="0.16"></path><path d="M469.17 154.38Q484.31 159.07 499.45 163.67 514.59 167.77 529.73 171.02 544.87 173.13 560.01 173.92 575.15 173.32 590.29 171.38 605.43 168.27 620.57 164.26 635.71 159.71 650.85 155.01 665.99 150.57 681.13 146.78 696.27 143.96 711.41 142.37 726.55 142.15 741.69 143.31 756.83 145.75 771.97 149.26 787.11 153.53 802.25 158.2 817.39 162.84 832.53 167.06 847.67 170.49 862.81 172.83 877.95 173.87 893.09 173.53 908.23 171.83 923.37 168.92 938.51 165.06 953.65 160.58 964.2 175.8 973.72 191.02 981.37 206.24 986.44 221.45 988.47 236.67 987.29 251.89 982.98 267.1 975.96 282.32 966.84 297.54 956.48 312.76 945.79 327.97 935.76 343.19 927.29 358.41 921.16 373.62 917.92 388.84 917.87 404.06 921 419.28 927.04 434.49 935.44 449.71 945.43 464.93 956.11 480.14 966.5 495.36 975.67 510.58 982.78 525.8 987.19 541.01 988.49 556.23 986.56 571.45 981.59 586.67 974.02 601.88 964.55 617.1 954.02 632.32 943.4 647.53 928.49 657.12 913.59 665.38 898.68 671.6 883.78 675.24 868.87 675.97 853.97 673.74 839.06 668.74 824.16 661.4 809.25 652.36 794.35 642.43 779.44 632.45 764.54 623.31 749.63 615.8 734.73 610.57 719.82 608.09 704.91 608.57 690.01 611.97 675.1 617.99 660.2 626.11 645.29 635.61 630.39 645.67 615.48 655.41 600.58 663.98 585.67 670.63 570.77 674.78 555.86 676.06 540.96 674.38 526.05 669.86 511.15 662.91 496.24 654.14 481.34 644.31 466.43 634.27 469.27 619.27 472.08 604.28 474.62 589.28 476.64 574.28 477.97 559.29 478.48 544.29 478.14 529.29 476.96 514.3 475.06 499.3 472.61 484.31 469.83 469.31 466.97 454.31 464.3 439.32 462.06 424.32 460.44 409.32 459.6 394.33 459.62 379.33 460.48 364.33 462.12 349.34 464.39 334.34 467.07 319.35 469.93 304.35 472.7 289.35 475.13 274.36 477.01 259.36 478.16 244.36 478.48 229.37 477.94 214.37 476.58 199.37 474.54 184.38 471.99 169.38 469.17 154.38" stroke-dasharray="2 7" transform="rotate(16.16, 711, 400)" opacity="0.20"></path><path d="M482.38 168.78Q497 173.35 511.62 177.58 526.24 181.12 540.86 183.7 555.48 185.1 570.1 185.23 584.72 184.06 599.34 181.69 613.96 178.31 628.58 174.19 643.2 169.66 657.83 165.07 672.45 160.8 687.07 157.18 701.69 154.5 716.31 152.97 730.93 152.72 745.55 153.76 760.17 156.02 774.79 159.31 789.41 163.37 804.03 167.88 818.65 172.48 833.27 176.8 847.9 180.5 862.52 183.28 877.14 184.93 891.76 185.3 906.38 184.38 921 182.24 935.62 179.04 950.24 175.04 959.56 189.68 967.43 204.31 973.19 218.95 976.36 233.59 976.69 248.23 974.15 262.87 968.95 277.5 961.51 292.14 952.46 306.78 942.54 321.42 932.58 336.06 923.39 350.69 915.75 365.33 910.28 379.97 907.43 394.61 907.45 409.24 910.33 423.88 915.83 438.52 923.49 453.16 932.69 467.8 942.66 482.43 952.57 497.07 961.61 511.71 969.02 526.35 974.2 540.98 976.71 555.62 976.34 570.26 973.13 584.9 967.35 599.54 959.46 614.17 950.13 628.81 940.12 643.45 925.73 651.69 911.33 658.28 896.94 662.7 882.54 664.6 868.14 663.82 853.75 660.43 839.35 654.69 824.96 647.07 810.56 638.17 796.16 628.7 781.77 619.41 767.37 611.04 752.98 604.26 738.58 599.61 724.18 597.46 709.79 597.98 695.39 601.12 681 606.65 666.6 614.11 652.21 622.91 637.81 632.36 623.41 641.7 609.02 650.19 594.62 657.15 580.23 662.03 565.83 664.44 551.43 664.18 537.04 661.28 522.64 655.98 508.25 648.68 493.85 639.98 479.45 630.56 482.34 616.13 485.04 601.7 487.32 587.27 488.99 572.84 489.91 558.4 490.02 543.97 489.3 529.54 487.8 515.11 485.66 500.68 483.05 486.25 480.19 471.82 477.31 457.39 474.65 442.96 472.44 428.53 470.85 414.1 470.02 399.67 470.01 385.24 470.84 370.81 472.42 356.38 474.62 341.95 477.28 327.52 480.15 313.09 483.02 298.66 485.63 284.23 487.78 269.8 489.28 255.37 490.02 240.93 489.92 226.5 489 212.07 487.34 197.64 485.07 183.21 482.38 168.78" stroke-dasharray="0 4" transform="rotate(20.200000000000003, 711, 400)" opacity="0.24"></path><path d="M495.72 183.37Q509.8 187.61 523.87 191.31 537.95 194.19 552.03 196.05 566.1 196.74 580.18 196.23 594.26 194.54 608.34 191.8 622.41 188.21 636.49 184.02 650.57 179.55 664.64 175.1 678.72 171.01 692.8 167.57 706.87 165.03 720.95 163.57 735.03 163.29 749.11 164.22 763.18 166.29 777.26 169.35 791.34 173.18 805.41 177.51 819.49 182.01 833.57 186.36 847.65 190.26 861.72 193.42 875.8 195.6 889.88 196.66 903.95 196.51 918.03 195.17 932.11 192.74 946.18 189.38 953.97 203.42 960.03 217.46 963.91 231.5 965.32 245.53 964.14 259.57 960.48 273.61 954.6 287.65 946.94 301.69 938.09 315.73 928.7 329.77 919.49 343.81 911.14 357.85 904.28 371.88 899.43 385.92 896.96 399.96 897.04 414 899.67 428.04 904.65 442.08 911.62 456.12 920.04 470.16 929.29 484.19 938.66 498.23 947.46 512.27 955.02 526.31 960.77 540.35 964.29 554.39 965.31 568.43 963.74 582.47 959.72 596.51 953.53 610.54 945.66 624.58 936.68 638.62 922.81 645.29 908.93 650.12 895.06 652.78 881.19 653.07 867.32 650.97 853.45 646.63 839.57 640.37 825.7 632.64 811.83 623.99 797.96 615.05 784.08 606.47 770.21 598.87 756.34 592.8 742.47 588.68 728.59 586.84 714.72 587.38 700.85 590.28 686.98 595.33 673.1 602.16 659.23 610.28 645.36 619.11 631.49 627.99 617.61 636.3 603.74 643.43 589.87 648.86 576 652.22 562.12 653.24 548.25 651.86 534.38 648.18 520.51 642.46 506.64 635.12 492.76 626.69 495.56 612.83 498 598.98 499.93 585.13 501.18 571.27 501.67 557.42 501.35 543.57 500.26 529.71 498.47 515.86 496.11 502 493.38 488.15 490.46 474.3 487.59 460.44 484.97 446.59 482.8 432.73 481.25 418.88 480.43 405.03 480.41 391.17 481.18 377.32 482.69 363.47 484.82 349.61 487.42 335.76 490.28 321.9 493.2 308.05 495.95 294.2 498.34 280.34 500.16 266.49 501.3 252.64 501.67 238.78 501.23 224.93 500.03 211.07 498.14 197.22 495.72 183.37" stroke-dasharray="11 2" transform="rotate(24.24, 711, 400)" opacity="0.28"></path><path d="M509.07 197.97Q522.57 201.71 536.07 204.76 549.57 206.91 563.08 208.02 576.58 208.02 590.08 206.91 603.59 204.76 617.09 201.71 630.59 197.96 644.1 193.76 657.6 189.38 671.1 185.11 684.61 181.21 698.11 177.96 711.61 175.56 725.11 174.16 738.62 173.86 752.12 174.68 765.62 176.57 779.13 179.39 792.63 182.98 806.13 187.08 819.64 191.44 833.14 195.77 846.64 199.79 860.15 203.24 873.65 205.89 887.15 207.56 900.66 208.16 914.16 207.63 927.66 206.02 941.16 203.43 947.23 216.85 951.45 230.26 953.53 243.68 953.34 257.1 950.88 270.52 946.33 283.93 939.99 297.35 932.29 310.77 923.76 324.19 914.98 337.6 906.53 351.02 899 364.44 892.89 377.86 888.62 391.27 886.48 404.69 886.62 418.11 889.02 431.53 893.52 444.94 899.82 458.36 907.49 471.78 916.01 485.2 924.79 498.61 933.25 512.03 940.82 525.45 946.97 538.86 951.28 552.28 953.48 565.7 953.4 579.12 951.06 592.53 946.6 605.95 940.35 619.37 932.71 632.79 919.38 637.74 906.05 640.83 892.73 641.83 879.4 640.69 866.07 637.49 852.74 632.42 839.42 625.83 826.09 618.14 812.76 609.85 799.44 601.51 786.11 593.65 772.78 586.8 759.45 581.39 746.13 577.79 732.8 576.22 719.47 576.79 706.15 579.46 692.82 584.05 679.49 590.28 666.17 597.73 652.84 605.91 639.51 614.29 626.18 622.33 612.86 629.49 599.53 635.32 586.2 639.44 572.88 641.56 559.55 641.56 546.22 639.44 532.89 635.33 519.57 629.5 506.24 622.34 508.79 609.07 510.88 595.81 512.37 582.55 513.15 569.29 513.18 556.03 512.44 542.77 511 529.51 508.95 516.24 506.42 502.98 503.6 489.72 500.66 476.46 497.82 463.2 495.26 449.94 493.15 436.67 491.65 423.41 490.85 410.15 490.8 396.89 491.52 383.63 492.94 370.37 494.98 357.11 497.5 343.84 500.32 330.58 503.25 317.32 506.1 304.06 508.67 290.8 510.79 277.54 512.31 264.27 513.13 251.01 513.19 237.75 512.5 224.49 511.09 211.23 509.07 197.97" stroke-dasharray="0 2" transform="rotate(28.28, 711, 400)" opacity="0.32"></path><path d="M522.27 212.41Q535.17 215.5 548.06 217.81 560.96 219.19 573.85 219.56 586.75 218.9 599.64 217.25 612.54 214.71 625.43 211.43 638.33 207.59 651.23 203.42 664.12 199.17 677.02 195.08 689.91 191.4 702.81 188.34 715.7 186.08 728.6 184.76 741.49 184.44 754.39 185.15 767.28 186.85 780.18 189.43 793.07 192.76 805.97 196.62 818.87 200.8 831.76 205.04 844.66 209.11 857.55 212.77 870.45 215.79 883.34 218 896.24 219.28 909.13 219.54 922.03 218.77 934.92 217.03 939.19 229.8 941.62 242.57 942.06 255.34 940.48 268.11 936.98 280.89 931.78 293.66 925.19 306.43 917.62 319.2 909.51 331.97 901.38 344.74 893.71 357.52 886.97 370.29 881.58 383.06 877.85 395.83 876.02 408.6 876.21 421.38 878.39 434.15 882.43 446.92 888.1 459.69 895.04 472.46 902.82 485.24 910.99 498.01 919.03 510.78 926.47 523.55 932.83 536.32 937.75 549.1 940.91 561.87 942.13 574.64 941.32 587.41 938.55 600.18 933.98 612.95 927.88 625.73 915.13 628.95 902.37 630.36 889.62 629.88 876.87 627.52 864.11 623.44 851.36 617.87 838.6 611.13 825.85 603.62 813.1 595.78 800.34 588.08 787.59 580.95 774.83 574.82 762.08 570.05 749.33 566.92 736.57 565.61 723.82 566.19 711.06 568.64 698.31 572.81 685.56 578.45 672.8 585.24 660.05 592.78 647.29 600.62 634.54 608.31 621.78 615.39 609.03 621.46 596.28 626.15 583.52 629.19 570.77 630.4 558.01 629.72 545.26 627.17 532.51 622.92 519.75 617.2 521.93 604.55 523.57 591.9 524.56 579.25 524.85 566.6 524.41 553.95 523.28 541.3 521.52 528.65 519.25 516 516.59 503.35 513.71 490.7 510.79 478.05 508 465.4 505.52 452.75 503.49 440.11 502.04 427.46 501.26 414.81 501.2 402.16 501.85 389.51 503.19 376.86 505.12 364.21 507.53 351.56 510.27 338.91 513.18 326.26 516.08 313.61 518.79 300.96 521.15 288.31 523.01 275.66 524.26 263.01 524.82 250.36 524.67 237.71 523.8 225.06 522.27 212.41" stroke-dasharray="4 1" transform="rotate(32.32, 711, 400)" opacity="0.35"></path><path d="M535.19 226.51Q547.44 228.85 559.7 230.37 571.95 230.97 584.2 230.64 596.45 229.38 608.71 227.27 620.96 224.41 633.21 220.96 645.46 217.08 657.72 213 669.97 208.91 682.22 205.04 694.47 201.58 706.73 198.72 718.98 196.61 731.23 195.35 743.48 195.02 755.74 195.62 767.99 197.14 780.24 199.48 792.49 202.53 804.75 206.13 817 210.08 829.25 214.19 841.5 218.24 853.76 222.01 866.01 225.31 878.26 227.97 890.51 229.84 902.77 230.83 915.02 230.89 927.27 230.02 929.77 242.12 930.54 254.22 929.54 266.32 926.83 278.43 922.55 290.53 916.93 302.63 910.28 314.73 902.96 326.84 895.38 338.94 887.93 351.04 881.03 363.14 875.06 375.24 870.33 387.35 867.11 399.45 865.57 411.55 865.79 423.65 867.76 435.76 871.38 447.86 876.45 459.96 882.68 472.06 889.75 484.16 897.27 496.27 904.83 508.37 912.01 520.47 918.44 532.57 923.75 544.68 927.66 556.78 929.96 568.88 930.52 580.98 929.31 593.09 926.39 605.19 921.94 617.29 909.79 618.85 897.64 618.74 885.49 616.97 873.34 613.64 861.19 608.91 849.04 603.04 836.89 596.32 824.74 589.12 812.59 581.81 800.44 574.77 788.29 568.37 776.14 562.94 763.99 558.77 751.84 556.08 739.69 555 727.54 555.6 715.39 557.83 703.24 561.59 691.09 566.68 678.95 572.84 666.8 579.73 654.65 587 642.5 594.27 630.35 601.16 618.2 607.32 606.05 612.4 593.9 616.16 581.75 618.4 569.6 618.99 557.45 617.91 545.3 615.21 533.15 611.04 534.86 599.02 535.97 587.01 536.43 574.99 536.22 562.97 535.34 550.96 533.84 538.94 531.81 526.92 529.36 514.91 526.61 502.89 523.72 490.87 520.84 478.86 518.14 466.84 515.75 454.82 513.82 442.81 512.43 430.79 511.68 418.77 511.59 406.76 512.18 394.74 513.42 382.72 515.22 370.71 517.51 358.69 520.15 346.67 522.99 334.66 525.89 322.64 528.69 310.62 531.24 298.61 533.38 286.59 535.02 274.57 536.06 262.56 536.44 250.54 536.15 238.52 535.19 226.51" stroke-dasharray="2 1" transform="rotate(36.36, 711, 400)" opacity="0.39"></path><path d="M547.68 240.09Q559.26 241.63 570.84 242.34 582.41 242.21 593.99 241.23 605.56 239.46 617.14 236.96 628.71 233.87 640.29 230.32 651.86 226.47 663.44 222.51 675.01 218.62 686.59 214.98 698.16 211.76 709.74 209.1 721.31 207.13 732.89 205.95 744.47 205.6 756.04 206.1 767.62 207.44 779.19 209.54 790.77 212.31 802.34 215.62 813.92 219.32 825.49 223.24 837.07 227.19 848.64 230.99 860.22 234.47 871.79 237.47 883.37 239.84 894.95 241.47 912.74 247.99 918.27 265.1 916.08 276.51 912.48 287.92 907.66 299.33 901.84 310.74 895.31 322.15 888.37 333.56 881.37 344.97 874.64 356.38 868.51 367.79 863.26 379.2 859.16 390.6 856.41 402.01 855.12 413.42 855.38 424.83 857.15 436.24 860.37 447.65 864.87 459.06 870.43 470.47 876.8 481.88 883.65 493.29 890.67 504.7 897.51 516.11 903.84 527.52 909.36 538.93 913.81 550.34 916.96 561.75 918.66 573.16 918.84 584.57 910.32 601.71 891.64 606.01 880.12 603.2 868.61 599.13 857.1 593.99 845.59 588.01 834.08 581.48 822.57 574.69 811.05 567.96 799.54 561.61 788.03 555.92 776.52 551.16 765.01 547.56 753.49 545.27 741.98 544.4 730.47 545 718.96 547.04 707.45 550.41 695.94 554.98 684.42 560.51 672.91 566.77 661.4 573.45 649.89 580.25 638.38 586.85 626.87 592.95 615.35 598.26 603.84 602.55 592.33 605.6 580.82 607.28 569.31 607.51 552.61 599.28 547.99 580.92 547.92 569.56 547.22 558.2 545.93 546.84 544.12 535.48 541.87 524.12 539.28 512.76 536.49 501.4 533.63 490.04 530.83 478.67 528.24 467.31 525.97 455.95 524.13 444.59 522.82 433.23 522.09 421.87 521.99 410.51 522.51 399.15 523.64 387.79 525.31 376.43 527.45 365.07 529.96 353.7 532.7 342.34 535.56 330.98 538.39 319.62 541.05 308.26 543.43 296.9 545.39 285.54 546.86 274.18 547.75 262.82 548.03 251.46 547.68 240.09" stroke-dasharray="5 7" transform="rotate(40.400000000000006, 711, 400)" opacity="0.43"></path><path d="M559.63 253.02Q570.49 253.74 581.36 253.68 592.23 252.87 603.09 251.33 613.96 249.12 624.83 246.34 635.69 243.09 646.56 239.52 657.43 235.76 668.29 231.97 679.16 228.3 690.03 224.91 700.89 221.92 711.76 219.47 722.63 217.65 733.49 216.54 744.36 216.18 755.23 216.59 766.09 217.75 776.96 219.61 787.83 222.09 798.69 225.11 809.56 228.52 820.43 232.2 831.29 235.99 842.16 239.75 853.03 243.3 863.89 246.52 874.76 249.28 885.63 251.44 901.64 258.67 904.89 275.1 901.77 285.8 897.56 296.5 892.44 307.2 886.62 317.89 880.35 328.59 873.9 339.29 867.54 349.98 861.53 360.68 856.14 371.38 851.58 382.08 848.07 392.77 845.73 403.47 844.68 414.17 844.96 424.86 846.55 435.56 849.39 446.26 853.36 456.96 858.29 467.65 863.97 478.35 870.15 489.05 876.59 499.74 883 510.44 889.11 521.14 894.67 531.84 899.44 542.53 903.21 553.23 905.83 563.93 907.18 574.63 901.15 590.04 884.24 592.26 873.4 588.67 862.56 584.11 851.71 578.77 840.87 572.87 830.03 566.65 819.19 560.36 808.35 554.26 797.51 548.6 786.67 543.61 775.83 539.48 764.98 536.4 754.14 534.48 743.3 533.81 732.46 534.4 721.62 536.25 710.78 539.26 699.94 543.32 689.1 548.27 678.25 553.9 667.41 559.98 656.57 566.26 645.73 572.49 634.89 578.42 624.05 583.8 613.21 588.41 602.36 592.07 591.52 594.63 580.68 595.98 564.7 590.13 559.55 573.52 558.96 562.83 557.82 552.15 556.18 541.47 554.11 530.78 551.7 520.1 549.04 509.42 546.25 498.74 543.46 488.05 540.77 477.37 538.3 466.69 536.16 456 534.44 445.32 533.2 434.64 532.51 423.95 532.39 413.27 532.84 402.59 533.86 391.9 535.39 381.22 537.36 370.54 539.71 359.85 542.32 349.17 545.08 338.49 547.89 327.81 550.61 317.12 553.14 306.44 555.37 295.76 557.2 285.07 558.55 274.39 559.37 263.71 559.63 253.02" stroke-dasharray="7 7" transform="rotate(44.44, 711, 400)" opacity="0.47"></path><path d="M570.91 265.17Q581.04 265.09 591.17 264.34 601.31 262.94 611.44 260.93 621.57 258.4 631.7 255.42 641.83 252.11 651.96 248.58 662.09 244.96 672.22 241.38 682.36 237.96 692.49 234.83 702.62 232.09 712.75 229.85 722.88 228.18 733.01 227.14 743.14 226.77 753.27 227.09 763.41 228.07 773.54 229.7 783.67 231.9 793.8 234.6 803.93 237.71 814.06 241.11 824.19 244.68 834.32 248.31 844.46 251.84 854.59 255.18 864.72 258.18 874.85 260.76 889.16 268.51 890.52 284.19 886.76 294.16 882.2 304.13 877 314.1 871.36 324.06 865.48 334.03 859.58 344 853.89 353.97 848.6 363.93 843.92 373.9 840.02 383.87 837.04 393.84 835.09 403.81 834.25 413.77 834.55 423.74 835.96 433.71 838.46 443.68 841.93 453.65 846.25 463.61 851.27 473.58 856.79 483.55 862.62 493.52 868.53 503.48 874.32 513.45 879.76 523.42 884.65 533.39 888.82 543.36 892.11 553.32 894.39 563.29 890.56 577.08 875.38 577.62 865.24 573.5 855.1 568.69 844.96 563.36 834.82 557.69 824.68 551.9 814.54 546.17 804.4 540.73 794.26 535.75 784.12 531.43 773.98 527.9 763.84 525.3 753.7 523.73 743.56 523.22 733.41 523.81 723.27 525.47 713.13 528.14 702.99 531.73 692.85 536.12 682.71 541.13 672.57 546.61 662.43 552.34 652.29 558.14 642.15 563.78 632.01 569.08 621.87 573.85 611.73 577.91 601.59 581.12 591.45 583.36 576.22 579.63 570.58 564.72 569.52 554.73 568 544.75 566.08 534.76 563.82 524.78 561.3 514.79 558.63 504.81 555.9 494.82 553.2 484.84 550.65 474.85 548.33 464.87 546.34 454.88 544.73 444.9 543.58 434.91 542.92 424.93 542.79 414.94 543.18 404.96 544.08 394.97 545.45 384.99 547.26 375 549.42 365.02 551.86 355.03 554.49 345.05 557.22 335.06 559.93 325.08 562.54 315.09 564.95 305.11 567.05 295.12 568.79 285.14 570.09 275.15 570.91 265.17" stroke-dasharray="9 3" transform="rotate(48.48, 711, 400)" opacity="0.51"></path><path d="M581.47 276.44Q590.85 275.65 600.22 274.3 609.6 272.42 618.97 270.06 628.35 267.31 637.72 264.24 647.1 260.94 656.47 257.53 665.85 254.1 675.22 250.76 684.6 247.6 693.97 244.74 703.35 242.25 712.72 240.22 722.09 238.7 731.47 237.73 740.84 237.36 750.22 237.59 759.59 238.42 768.97 239.81 778.34 241.73 787.72 244.12 797.09 246.9 806.47 249.99 815.84 253.29 825.22 256.71 834.59 260.14 843.96 263.47 853.34 266.61 862.71 269.44 875.44 277.51 875.35 292.35 871.21 301.58 866.53 310.81 861.45 320.03 856.13 329.26 850.74 338.48 845.46 347.71 840.44 356.94 835.86 366.16 831.86 375.39 828.56 384.61 826.08 393.84 824.48 403.07 823.82 412.29 824.13 421.52 825.39 430.74 827.56 439.97 830.57 449.2 834.32 458.42 838.71 467.65 843.58 476.88 848.78 486.1 854.15 495.33 859.52 504.55 864.71 513.78 869.55 523.01 873.9 532.23 877.62 541.46 880.59 550.68 867.13 560.42 846.25 553.01 836.84 547.86 827.42 542.56 818.01 537.27 808.6 532.16 799.18 527.38 789.77 523.08 780.36 519.39 770.94 516.42 761.53 514.27 752.12 512.99 742.7 512.64 733.29 513.21 723.88 514.7 714.46 517.05 705.05 520.2 695.63 524.05 686.22 528.48 676.81 533.35 667.39 538.52 657.98 543.82 648.57 549.1 639.15 554.19 629.74 558.94 620.33 563.2 610.91 566.84 601.5 569.75 587.08 567.81 581.04 554.51 579.59 545.25 577.77 535.98 575.63 526.71 573.25 517.44 570.7 508.17 568.07 498.9 565.44 489.63 562.88 480.36 560.49 471.09 558.34 461.82 556.5 452.55 555.02 443.28 553.96 434.01 553.34 424.74 553.19 415.48 553.51 406.21 554.29 396.94 555.52 387.67 557.13 378.4 559.1 369.13 561.34 359.86 563.8 350.59 566.4 341.32 569.04 332.05 571.65 322.78 574.15 313.51 576.44 304.24 578.47 294.97 580.17 285.71 581.47 276.44" stroke-dasharray="8 3" transform="rotate(52.52, 711, 400)" opacity="0.54"></path><path d="M591.28 286.78Q608.49 283.57 625.7 278.75 642.9 272.82 660.11 266.38 677.32 260.11 694.52 254.66 711.73 250.59 728.94 248.33 746.15 248.11 763.35 249.95 780.56 253.67 797.77 258.87 814.98 265.02 832.18 271.47 849.39 277.57 866.6 282.67 859.54 299.63 850.69 316.58 841.02 333.53 831.56 350.49 823.33 367.44 817.22 384.39 813.9 401.35 813.71 418.3 816.69 435.25 822.5 452.2 830.53 469.16 839.9 486.11 849.6 503.06 858.6 520.02 859.66 541.63 836.08 537.19 818.74 527.54 801.41 518.36 784.08 510.59 766.75 505.04 749.42 502.29 732.09 502.62 714.76 506 697.42 512.07 680.09 520.22 662.76 529.58 645.43 539.2 628.1 548.07 610.77 555.27 593.44 560.05 590.92 542.97 587.12 525.89 582.44 508.81 577.38 491.73 572.51 474.65 568.33 457.57 565.3 440.5 563.75 423.42 563.85 406.34 565.58 389.26 568.76 372.18 573.04 355.1 577.97 338.02 583 320.94 587.61 303.86 591.28 286.78" stroke-dasharray="1 1" transform="rotate(56.56, 711, 400)" opacity="0.58"></path><path d="M600.34 296.19Q615.99 292.2 631.64 287.05 647.29 281.2 662.94 275.16 678.59 269.45 694.24 264.58 709.89 260.96 725.54 258.92 741.2 258.64 756.85 260.13 772.5 263.26 788.15 267.77 803.8 273.26 819.45 279.25 835.1 285.22 850.75 290.65 843.31 306.09 834.84 321.54 826.11 336.99 817.92 352.44 811 367.89 805.99 383.33 803.35 398.78 803.3 414.23 805.86 429.68 810.79 445.13 817.65 460.57 825.81 476.02 834.54 491.47 843.03 506.92 845.52 526.17 824.71 521.37 808.9 512.72 793.1 504.8 777.29 498.28 761.48 493.76 745.68 491.61 729.87 492.02 714.06 494.97 698.26 500.19 682.45 507.22 666.64 515.46 650.83 524.18 635.03 532.62 619.22 540.05 603.41 545.81 600.21 530.21 596.08 514.61 591.4 499.01 586.59 483.41 582.08 467.81 578.3 452.2 575.58 436.6 574.17 421 574.19 405.4 575.65 389.8 578.42 374.2 582.23 358.59 586.75 342.99 591.56 327.39 596.23 311.79 600.34 296.19" stroke-dasharray="1 0" transform="rotate(60.599999999999994, 711, 400)" opacity="0.62"></path><path d="M608.7 304.71Q622.79 300.23 636.89 295.01 650.98 289.44 665.08 283.9 679.17 278.8 693.26 274.51 707.36 271.34 721.45 269.52 735.54 269.18 749.64 270.34 763.73 272.92 777.82 276.73 791.92 281.51 806.01 286.89 820.1 292.5 834.2 297.93 826.87 311.88 819.1 325.83 811.47 339.77 804.56 353.72 798.88 367.66 794.87 381.61 792.82 395.56 792.88 409.5 795.06 423.45 799.19 437.39 804.96 451.34 811.93 465.29 819.58 479.23 827.34 493.18 830.62 510.31 812.35 505.67 798.08 498.15 783.81 491.49 769.54 486.17 755.28 482.57 741.01 480.95 726.74 481.43 712.47 483.97 698.21 488.39 683.94 494.38 669.67 501.49 655.41 509.22 641.14 517 626.87 524.28 612.6 530.52 608.95 516.41 604.7 502.29 600.17 488.18 595.7 474.07 591.63 459.95 588.27 445.84 585.86 431.73 584.58 417.61 584.55 403.5 585.74 389.39 588.09 375.27 591.4 361.16 595.43 347.05 599.89 332.93 604.42 318.82 608.7 304.71" stroke-dasharray="7 4" transform="rotate(64.64, 711, 400)" opacity="0.66"></path><path d="M616.46 312.42Q629.01 307.77 641.56 302.72 654.11 297.57 666.66 292.62 679.2 288.17 691.75 284.46 704.3 281.72 716.85 280.12 729.4 279.73 741.94 280.59 754.49 282.65 767.04 285.78 779.59 289.8 792.14 294.48 804.68 299.54 817.23 304.69 810.43 317.14 803.6 329.6 797.16 342.06 791.51 354.51 786.98 366.97 783.85 379.42 782.32 391.88 782.47 404.33 784.3 416.79 787.7 429.24 792.45 441.7 798.28 454.15 804.82 466.61 811.67 479.07 815.18 494.28 799.21 490.21 786.48 483.9 773.76 478.47 761.03 474.25 748.31 471.48 735.58 470.31 722.86 470.83 710.13 473 697.4 476.69 684.68 481.69 671.95 487.7 659.23 494.38 646.5 501.32 633.78 508.13 621.05 514.4 617.2 501.78 613.03 489.15 608.8 476.53 604.76 463.91 601.16 451.28 598.23 438.66 596.13 426.03 595 413.41 594.9 400.79 595.85 388.16 597.78 375.54 600.58 362.91 604.07 350.29 608.05 337.67 612.26 325.04 616.46 312.42" stroke-dasharray="7 4" transform="rotate(68.68, 711, 400)" opacity="0.70"></path><path d="M623.76 319.45Q634.79 314.92 645.81 310.25 656.84 305.66 667.86 301.36 678.89 297.56 689.92 294.43 700.94 292.11 711.97 290.71 722.99 290.3 734.02 290.89 745.04 292.47 756.07 294.94 767.09 298.21 778.12 302.12 791.68 314.28 788.47 333.07 783.24 344.05 778.78 355.03 775.28 366.01 772.93 377 771.84 387.98 772.05 398.96 773.57 409.95 776.31 420.93 780.14 431.91 784.88 442.89 790.31 453.88 796.15 464.86 786.91 474.17 763.18 465.76 751.98 462.53 740.79 460.48 729.59 459.7 718.4 460.24 707.2 462.06 696.01 465.08 684.81 469.17 673.62 474.13 662.42 479.73 651.23 485.71 632.54 489.19 621.14 475.43 617.32 464.29 613.79 453.15 610.69 442.01 608.19 430.87 606.4 419.73 605.41 408.58 605.27 397.44 605.99 386.3 607.52 375.16 609.8 364.02 612.72 352.87 616.13 341.73 619.87 330.59 623.76 319.45" stroke-dasharray="8 11" transform="rotate(72.72, 711, 400)" opacity="0.73"></path><path d="M630.77 325.97Q640.3 321.81 649.83 317.69 659.37 313.75 668.9 310.15 678.44 307 687.97 304.42 697.5 302.5 707.04 301.31 716.57 300.88 726.11 301.25 735.64 302.38 745.17 304.25 754.71 306.78 764.24 309.89 776.08 320.19 773.8 336.44 769.75 345.97 766.38 355.51 763.8 365.04 762.11 374.57 761.39 384.11 761.64 393.64 762.87 403.17 765.02 412.71 768.03 422.24 771.77 431.77 776.11 441.31 780.9 450.84 772.83 459.61 752.32 453.35 742.64 451 732.95 449.57 723.27 449.11 713.58 449.64 703.9 451.15 694.21 453.57 684.53 456.82 674.84 460.79 665.16 465.34 655.47 470.3 639.18 473.29 629.1 461.4 625.81 451.73 622.81 442.05 620.23 432.38 618.16 422.71 616.68 413.03 615.83 403.36 615.65 393.69 616.16 384.01 617.32 374.34 619.09 364.67 621.42 354.99 624.21 345.32 627.37 335.64 630.77 325.97" stroke-dasharray="8 1" transform="rotate(76.76, 711, 400)" opacity="0.77"></path><path d="M637.67 332.18Q653.83 325.14 669.98 319.01 686.14 314.44 702.3 311.9 718.46 311.65 734.61 313.72 750.77 317.9 766.93 323.74 759.69 339.96 754.31 356.18 751.39 372.4 751.22 388.61 753.84 404.83 758.96 421.05 761.94 441.81 741.46 441.27 725.05 438.74 708.64 439.05 692.23 442.15 675.83 447.72 659.42 455.19 643.01 463.78 637.01 447.33 631.87 430.88 628.15 414.43 626.24 397.98 626.36 381.53 628.49 365.08 632.4 348.63 637.67 332.18" stroke-dasharray="2 2" transform="rotate(80.80000000000001, 711, 400)" opacity="0.81"></path><path d="M644.69 338.3Q658.01 332.69 671.34 327.98 684.66 324.5 697.98 322.5 711.3 322.12 724.63 323.4 737.95 326.23 751.27 330.42 746.18 343.85 742.59 357.27 740.75 370.69 740.81 384.11 742.76 397.54 746.46 410.96 747.99 428.62 730.84 429.51 717.33 428.01 703.82 428.45 690.3 430.81 676.79 434.92 663.27 440.48 649.76 447.09 644.96 433.49 641 419.89 638.16 406.29 636.66 392.69 636.61 379.09 638.02 365.49 640.79 351.9 644.69 338.3" stroke-dasharray="4 2" transform="rotate(84.84, 711, 400)" opacity="0.85"></path><path d="M652.04 344.55Q662.61 340.46 673.17 337.09 683.73 334.6 694.29 333.09 704.85 332.65 715.41 333.29 729.66 341.65 731.2 359 730.2 369.67 730.39 380.35 731.78 391.03 734.28 401.7 734.6 416.19 720.72 418.08 710.03 417.35 699.33 417.86 688.64 419.57 677.95 422.42 660.15 423.2 650.22 409.34 648.19 398.54 647.07 387.75 646.92 376.95 647.72 366.15 649.46 355.35 652.04 344.55" stroke-dasharray="2 7" transform="rotate(88.88, 711, 400)" opacity="0.89"></path><path d="M659.95 351.19Q675.67 346.37 691.4 343.69 707.13 343.43 722.86 345.61 720.13 361.55 719.98 377.5 722.42 393.44 727.19 409.38 711.3 406.97 695.42 407.26 679.53 410.22 663.64 415.54 659.57 399.45 657.49 383.37 657.62 367.28 659.95 351.19" stroke-dasharray="9 2" transform="rotate(92.92, 711, 400)" opacity="0.92"></path><path d="M668.59 358.42Q679.03 355.84 689.46 354.28 704.64 359.46 709.56 375.68 706.82 391.23 692.25 396.66 675.42 394.37 667.9 379.76 667.74 369.09 668.59 358.42" stroke-dasharray="3 11" transform="rotate(96.96, 711, 400)" opacity="0.96"></path></g></svg>